<svg height="128" width="128" xmlns="http://www.w3.org/2000/svg"><path d="M64 12a52 52 0 0 0-52 52 52 52 0 0 0 52 52 52 52 0 0 0 52-52 52 52 0 0 0-52-52z" fill="#3584e4"/><path d="M64 8a52 52 0 0 0-52 52 52 52 0 0 0 52 52 52 52 0 0 0 52-52A52 52 0 0 0 64 8z" fill="#1a5fb4"/><path d="M64 8a52 52 0 0 0-19.988 4.012L48 16v4l8 8h4v-6l6-4v-6l4-2V8.412A52 52 0 0 0 64 8zm-28.328 8.448A52 52 0 0 0 12 60c.02 1.224.08 2.444.184 3.66L24 74v-6l-4-6 8-6 6 4v-8l8-6 6-10-6-6h-6l2 6H28l-2-4 2-4v-4h10v-6zM94 18l-6 6v4h4v-4h8v8H84v4h-4v4h-8v12h12v-8h8l4 8h4v-8h4l4 8h4v4H72l-4 6 10 10 10 16 2 10 4.248 4.248a52 52 0 0 0 21.12-34.44L106 60l2-2 7.8 6.24A52 52 0 0 0 116 60a52 52 0 0 0-21.444-42zM30 72l-4 4v10l8 8v8.4a52 52 0 0 0 11.44 6.16L48 106v-4l6-6v-4l4-4v-8l-4-4h-8l-4-4z" fill="#1c71d8"/></svg>